<?xml version="1.0"?>
<svg width="100" height="32" xmlns="http://www.w3.org/2000/svg" xmlns:svg="http://www.w3.org/2000/svg" enable-background="new 0 0 100 100" version="1.1" xml:space="preserve">
 <g class="layer">
  <title>Layer 1</title>
  <path d="m9.3,61.6l83.3,0l1.4,-3l0,0l0,-4.4l-0.2,0l0,4.4l-13.4,0l-0.6,-1.4l-1.6,0l0,-0.4l1.3,0l0,-0.2l-1.3,0c0,0 -0.3,-0.5 -1,-0.5c-0.8,0 -0.8,0.1 -0.8,0.3l0,0.8l-1,0c0,0 0,-0.7 -0.3,-0.8c-0.2,-0.1 -0.7,-0.1 -0.7,-0.1l0,-0.5l1.1,0l0,-0.2l-1.3,0c0,0 -0.7,-0.4 -1.2,-0.4c-0.5,0 -0.8,0 -0.8,0.3l0,0.8l-0.7,0l-0.1,-0.3l0,-0.7l0.4,-0.6l0,-0.4l-0.7,0l0,-0.4l-1.4,0l0,-0.3c0,0 0.5,-0.2 0.7,-0.2l0.2,0l0,-0.1l-0.4,0c0,0 -0.3,-0.3 -0.6,-0.3s-0.5,0.3 -0.5,0.4c0,0.1 0.3,0.2 0.3,0.2l0,0.3l-0.3,0l0,0.5l-1,0l-0.3,-0.3l0,-0.4l0.6,-0.5l0,-0.3l-0.9,0l0,-0.8l-0.5,0l0,-0.4c0,0 0.4,-0.3 0.4,-0.5c0,-0.2 -0.3,-0.4 -0.7,-0.4s-0.7,0.8 -0.7,0.8l0.2,0.3l0,0.3l-0.2,0.1l0,0.7l-0.6,0l0,0.3l-0.7,0l-0.3,-1.3l0.6,-0.3l-0.7,-0.1l-0.3,-0.5l0,-0.5l1.5,-0.2l0,-0.4l-0.1,0l-0.1,0.2l-1.4,0.1l-0.2,-1.7l-0.1,0l-0.1,1.7l-1.7,0.1l-0.2,-2.4l0.5,-0.1l0.4,-0.3l0,-0.1l-0.7,0l-0.2,-6.2l-0.1,0l-0.1,6.2l-1.2,0l0,0.2l0.6,0l0.4,0.4l0,2.2l-0.2,0l0,0.3l0.2,0l0.8,2.9l0,0l-0.5,-2.5l-0.1,-0.6l0.7,0.1l0.8,0.3l-0.2,0.9l-0.7,0l0,0.2l0.6,0l-0.4,1.4l-0.8,0l0,1l-0.7,0.2l-1,-0.5l-0.2,0.1l0.2,0.2l0.8,0.4l0,0.6l-0.3,0c0,0 -0.1,-0.3 -0.3,-0.3c-0.3,0 -0.2,0.3 -0.2,0.3l-0.7,0l0,-0.9l-0.2,0l0,0.5l-0.2,0.4l-0.5,0c0,0 -0.1,-0.5 -0.4,-0.4c-0.3,0 -0.3,0.4 -0.3,0.4l-0.7,0l-0.5,-4l0.4,-0.2l0,-0.3l-0.5,0l0,-1c0,0 0.8,-0.7 0.8,-1.1s-1.5,-1.7 -1.5,-1.7l0,-0.4l-0.5,0l0,0.4l-1.3,0l-0.2,-2.2c0,0 0,-0.1 0.2,0c0.2,0 0.3,0.6 0.5,0.6s0.9,-0.1 0.9,-0.2c0,0 0,-0.2 -0.2,-0.5c-0.2,-0.3 -1.5,-0.9 -1.5,-0.9l0.1,-4.1c0,0 0.4,-0.3 0.8,-0.1c0.4,0.2 0.9,0.3 1,0.3c0.1,0 0.5,-0.1 0.5,-0.1l-0.2,-1.3c0,0 -0.1,0.1 -0.4,0.1c-0.3,0 -1,-0.3 -1.2,-0.3c-0.2,0 -0.5,0.2 -0.5,0.2s0,-0.1 -0.1,-0.1c-0.1,0 -0.1,0.2 -0.1,0.2l0,4.8l-0.4,-0.1c0,0 -0.5,-0.4 -0.6,-0.4c-0.1,0 -0.1,0.3 -0.1,0.3s-1.1,2.7 -0.9,2.8c0.1,0.1 0.7,0.3 0.9,0.3c0.2,0 0.9,-1.3 0.9,-1.3l-0.2,1.9l-1.3,0l-0.5,-0.3l-0.4,0.1l-0.3,0.3c0,0 1.9,0.9 2,1.1c0,0.2 -0.4,0.8 -0.4,0.8l-0.7,0.2l-0.3,0.1l-0.1,-0.7l-0.5,-0.1c0,0 0.1,-0.5 -0.2,-0.5c-0.3,0 -0.4,0.4 -0.3,0.5c0.2,0.1 0.3,0.2 0.3,0.2l0.5,0.1c0,0 0,0.6 0,0.6c0,0 -0.2,0 -0.2,0l0,0.4l1.1,0l0.3,0.3l-0.3,3.4l-0.1,0l-0.1,-1.4c0,0 -0.5,-0.5 -1.4,-0.5c-0.9,0 -1.1,0 -1.1,0l0,0.8l-0.8,0l-0.1,-0.5l-0.3,-0.2l0,-0.2c0,0 0.4,-0.1 0.4,-0.4c0,-0.2 -0.2,-0.4 -0.4,-0.5c-0.1,-0.1 -0.3,-0.2 -0.3,-0.2l-0.1,-4.6l-0.1,0l0,4.6c0,0 -0.6,0.2 -0.6,0.6c0,0.3 0.4,0.6 0.4,0.6l0,0.2l-0.5,0l0,0.9l-3.2,0l0,1.6l-0.3,0l-0.1,-0.2l-0.5,0l0,0.5l0.6,0.5l0,0.7l-0.2,0l0,0.6l-0.3,0l0,-0.6l-0.4,0l0,-1.1l-2.3,0l-0.4,-0.7l-0.8,0c0,0 -0.2,0 -0.2,0.1c-0.1,0.1 -0.1,0.1 -0.1,0.1l-1.7,0l0,0.1l1.3,0c0,0 0,0.1 0,0.2c0,0 0.1,0.1 0.1,0.1l0,0.2c0,0 -0.2,0.1 -0.3,0.1c-0.1,0.1 -0.5,0.4 -0.5,0.4l-0.9,0l0,0.1l0.5,0l0,0.2l0.4,0c0,0 0.2,0.1 0.3,0.1c0.1,0 0.1,0.2 0.1,0.2l0,0.6l-0.2,0l0,0.7l-2.6,0l0,-0.8c0,0 0.6,-0.3 0.6,-1.1c0,-0.7 -0.4,-1.1 -1.1,-1.1s-1.6,0 -1.6,0s-1,0.4 -1.2,0.6c-0.2,0.3 -0.3,0.5 -0.3,0.5l-6.7,-0.3l0,0.3l6.5,0.6l0,0.7l-1.4,1.5l-6.8,-0.3c0,0 -0.2,-0.6 -1.2,-0.6c-0.9,0 -18,-1.1 -18,-1.1s-0.4,0 -0.3,0.3c0.1,0.2 2.2,1.2 3.6,2.8c1.4,1.6 2.3,2.4 2.3,2.4l0.2,0.1z" fill="#000000" id="svg_1"/>
 </g>
</svg>