<?xml version="1.0"?>
<svg width="100" height="32" xmlns="http://www.w3.org/2000/svg" xmlns:svg="http://www.w3.org/2000/svg" enable-background="new 0 0 100 100" version="1.1" xml:space="preserve">
 <g class="layer">
  <title>Layer 1</title>
  <line fill="#000000" id="svg_1" stroke="#231F20" stroke-miterlimit="10" x1="-170.05" x2="-171.06" y1="331.14" y2="331.14"/>
  <path d="m-170.05,331.14" fill="#000000" id="svg_2" stroke="#231F20" stroke-miterlimit="10"/>
  <g id="svg_3">
   <path d="m10.06,51.76l-1.35,0.4l0.17,0.74c-0.09,0 -0.15,-0.01 -0.21,-0.01c-0.72,0.62 -0.2,1.36 -0.2,1.36s0.38,0.02 0.96,0.05c-0.31,-0.04 -0.55,-0.31 -0.55,-0.64c0,-0.36 0.29,-0.65 0.65,-0.65c0.36,0 0.65,0.29 0.65,0.65c0,0.35 -0.27,0.64 -0.62,0.65c1.64,0.09 4.61,0.26 5.37,0.29c0.68,-0.49 0.35,-1.13 0.21,-1.34l0.01,0l0.12,-0.66l-0.39,-0.44l-2.95,-0.38c0,0 -0.02,-0.4 0.03,-0.67c-0.27,-0.1 -1.78,0 -1.78,0l-0.04,0.21l-4.04,-0.26c-0.17,0.1 0,0.23 0,0.23l4,0.23l-0.04,0.24zm4.32,1.47c0.36,0 0.65,0.29 0.65,0.65c0,0.36 -0.29,0.65 -0.65,0.65c-0.36,0 -0.65,-0.29 -0.65,-0.65c0,-0.36 0.29,-0.65 0.65,-0.65zm-1.65,-0.07c0.36,0 0.65,0.29 0.65,0.65c0,0.36 -0.29,0.65 -0.65,0.65c-0.36,0 -0.65,-0.29 -0.65,-0.65c0,-0.36 0.29,-0.65 0.65,-0.65zm-1.69,-0.14c0.36,0 0.66,0.29 0.66,0.65s-0.3,0.65 -0.66,0.65c-0.35,0 -0.65,-0.29 -0.65,-0.65s0.3,-0.65 0.65,-0.65z" fill="#000000" id="svg_4"/>
   <path d="m93.22,56.59c-0.69,0.47 -1.11,2.57 -1.24,3.32c0.13,0.34 -0.69,2.8 -0.69,2.8l-72.57,-0.45l-1.47,0l-0.78,-0.59l-1.28,0l-0.02,0.48l-0.57,0l0.04,-0.53c0,0 -0.46,0.07 -0.94,0c-0.47,-0.07 -0.27,-0.73 -0.27,-0.73l1.26,-0.05l0.02,-0.56l0.43,0.02l-0.02,0.52l1.44,0.02l0.62,-0.38l1.45,-0.01c-0.07,-0.37 -0.15,-0.73 -0.26,-0.94c-0.22,-0.4 -1.75,-0.11 -6.27,-0.45c-4.52,-0.34 -4.55,-4.86 -4.55,-4.86s10.24,0.67 15.3,0.65c-0.08,-0.29 0.03,-0.61 0.03,-0.61l-0.53,-0.57l-4.53,0.01l0,-0.26l4.52,-0.07l0.48,-0.64l2.56,-0.09l1.65,0.46l0.02,0.66l-1.91,0.06l0.05,1.23c0.24,-0.03 0.4,-0.13 0.49,-0.11c0.89,0.28 1.37,-0.14 1.6,-0.27l0.29,-0.18l1.19,-1.01l0.64,0.82l1.01,0.1l0.09,-0.73l-0.41,0l-0.03,-0.69l0.55,-0.09l0.02,-0.3l-3.03,-0.34l0.11,-0.32l2.9,0.29l-0.04,-0.47l2.6,0.06l0.98,0.9l-0.02,0.61l-1.32,-0.02l0.07,1.18l3.1,0.01l0,-6.81l-0.86,0.05l-0.05,-1.17l1.16,-0.02l-0.04,-8.91l0.76,0l-0.03,5.14l0.98,0.03l0,0.61l-0.91,0.05l0.06,2.49l0.97,-0.01l0.16,8.55l2.79,0.14l0,-3.61l2.92,-1.15l0.69,0l0,1.88l-2.29,0l0,1.05l1.93,0l-0.02,-0.03c-0.03,0.01 -0.06,0.02 -0.1,0.02c0,0 0,0 -0.01,0c0,0 -0.02,-0.01 -0.03,-0.01c0.01,0 0.03,0 0.04,0c0.14,0 0.25,-0.11 0.25,-0.25s-0.11,-0.25 -0.25,-0.25c-0.13,0 -0.24,0.11 -0.24,0.25c0,0.04 0,0.07 0.02,0.1c-0.02,-0.03 -0.03,-0.06 -0.04,-0.1c0,-0.14 0.12,-0.25 0.26,-0.25c0.14,0 0.26,0.11 0.26,0.25c0,0.06 -0.02,0.11 -0.05,0.16l0.1,0.11l0.17,0l0,2.01l0.97,0.05l-0.3,-11.69l-1.47,0.02l-0.41,-0.62l0.13,-0.48l2.88,-0.07l0,-0.82c-0.79,-0.04 -0.65,-0.71 -0.65,-0.71s-0.1,-0.79 -0.17,-1.75c-0.03,-0.39 0.08,-0.58 0.22,-0.66c0.1,-0.01 0.25,-0.02 0.46,-0.04c1.23,-0.1 1.14,0.6 1.14,0.6s0.03,0.69 0.03,1.58c0,0.89 -0.31,0.91 -0.31,0.91l-0.31,0l0,0.96l3.5,0l0,0.68l-0.48,0.55l-2.67,0l-0.04,1.01l1.96,0.02l0,0.69l-0.28,0.41l-1.98,-0.05l0,1.76l0,0.62l1.44,0l-1.55,0.96l0.11,6.12l4.09,0l0.09,-5.92l-0.55,0l0,-0.68l1.68,0.02l0.03,0.68l-0.62,-0.03l0.07,5.88l1.87,-0.04l1.97,-2.4l0.28,0.83l1.47,0.03l0.03,1.73l2.8,0.11l-0.17,-1.27l-1,0l0.04,-1.22l0.7,-0.43l2.83,0.1l2.12,0.67l7.34,0.29l0.02,0.26l-7.27,-0.19l0.12,0.74l-0.06,1.25l-0.02,1.51l2.57,0.12l0.48,0.03l2.6,0.18l0.02,-0.81l-0.93,-0.07l0.07,-0.93l0.53,-0.75l2.71,0.07l2.55,0.56l5.69,0.21l-0.01,0.19l-5.63,-0.12l0.12,1.12c0,0 0.39,-0.01 0.39,0.36c9.54,0.39 18.07,-0.8 17.4,-0.33z" fill="#000000" id="svg_5"/>
  </g>
 </g>
</svg>